<svg width="24" height="25" viewBox="0 0 24 25" fill="none" xmlns="http://www.w3.org/2000/svg">
<g clip-path="url(#clip0_177_1228)">
<path d="M0 0.147827H24V24.1478H0V0.147827Z" fill="white"/>
<path d="M15.0879 3.53931C15.3191 3.5137 15.592 3.54761 15.8156 3.60942C15.8314 3.61379 15.8471 3.61836 15.8628 3.62313C15.8785 3.62789 15.8941 3.63285 15.9097 3.63801C15.9252 3.64317 15.9407 3.64851 15.9561 3.65404C15.9716 3.65957 15.9869 3.6653 16.0022 3.67122C16.0175 3.67713 16.0327 3.68322 16.0478 3.6895C16.0629 3.6958 16.078 3.70227 16.0929 3.70893C16.1079 3.71559 16.1228 3.72242 16.1376 3.72944C16.1524 3.73647 16.1671 3.74368 16.1817 3.75107C16.1964 3.75845 16.2109 3.76601 16.2253 3.77376C16.2398 3.78151 16.2541 3.78943 16.2684 3.79752C16.2826 3.80562 16.2967 3.81389 16.3108 3.82235C16.3248 3.8308 16.3388 3.83942 16.3526 3.8482C16.3664 3.85699 16.3801 3.86595 16.3937 3.87508C16.4073 3.8842 16.4208 3.8935 16.4342 3.90297C16.4476 3.91242 16.4608 3.92204 16.474 3.93182C16.4871 3.94162 16.5001 3.95157 16.513 3.96168C16.5259 3.97179 16.5387 3.98206 16.5514 3.99248C16.564 4.0029 16.5765 4.01347 16.5889 4.02419C16.6013 4.03492 16.6135 4.04581 16.6256 4.05684C16.6377 4.06787 16.6497 4.07905 16.6616 4.09038C16.6734 4.1017 16.6851 4.11318 16.6966 4.12481C16.7082 4.13642 16.7196 4.14817 16.7309 4.16008C16.7421 4.17197 16.7532 4.184 16.7642 4.19617C16.7752 4.20835 16.786 4.22065 16.7967 4.23309C16.8073 4.24552 16.8178 4.2581 16.8282 4.2708C16.8386 4.28349 16.8488 4.29631 16.8588 4.30926C16.8688 4.3222 16.8787 4.33527 16.8884 4.34847C16.8982 4.36166 16.9077 4.37496 16.9171 4.38838C16.9265 4.40182 16.9357 4.41536 16.9448 4.429C16.9538 4.44266 16.9627 4.45642 16.9714 4.4703C16.9801 4.48417 16.9887 4.49815 16.9971 4.51223C17.0054 4.52632 17.0136 4.54051 17.0217 4.55479C17.2722 5.00458 17.3164 5.51917 17.1751 6.01328C16.8871 7.01955 15.8762 7.56344 15.0261 8.03725L18.0413 8.04159C18.2679 8.04415 18.4945 8.04501 18.7212 8.04417C18.8791 8.0436 19.0451 8.0327 19.2017 8.05485C19.3444 8.07506 19.484 8.13178 19.5912 8.22932C19.7569 8.37986 19.8393 8.57266 19.8478 8.79459C19.8655 9.25884 19.8501 9.72939 19.8501 10.1943C19.85 10.4611 19.8771 10.9365 19.8294 11.1717C19.8028 11.3022 19.7352 11.4224 19.6438 11.5191C19.4993 11.672 19.322 11.7361 19.1144 11.7438C19.1052 12.5437 19.1119 13.3441 19.1126 14.1441L19.1099 17.3172L19.1113 18.91C19.1114 19.2011 19.1281 19.5031 19.0997 19.7926C19.0838 19.9554 19.0285 20.1101 18.9463 20.251C18.8169 20.473 18.56 20.6555 18.3122 20.719C18.1053 20.7719 17.8689 20.7505 17.6563 20.7505L16.9284 20.7537L13.1821 20.7511L8.25099 20.7573L6.70993 20.756C6.4325 20.7558 6.15162 20.7666 5.87476 20.7511C5.69354 20.741 5.55479 20.6859 5.39982 20.5944C5.3367 20.5485 5.27562 20.5009 5.22043 20.4455C5.05726 20.2817 4.95765 20.0828 4.92144 19.8545C4.88143 19.602 4.90578 19.2518 4.9054 18.9862L4.9039 17.2967L4.90168 11.7488C4.68739 11.7367 4.50097 11.7002 4.34314 11.5401C4.33186 11.5285 4.32098 11.5165 4.31051 11.5041C4.30003 11.4917 4.28998 11.479 4.28037 11.4659C4.27075 11.4528 4.26158 11.4395 4.25286 11.4258C4.24412 11.4121 4.23587 11.3982 4.22808 11.3839C4.2203 11.3697 4.21301 11.3552 4.20619 11.3405C4.19938 11.3258 4.19307 11.3108 4.18726 11.2957C4.18144 11.2805 4.17615 11.2652 4.17137 11.2497C4.16658 11.2342 4.16233 11.2185 4.15859 11.2028C4.11601 11.0167 4.14022 10.7757 4.13975 10.5845L4.13921 9.33255C4.13893 8.9636 4.0711 8.54158 4.35966 8.25778C4.46511 8.15404 4.59971 8.09364 4.74476 8.07049C4.90744 8.04454 5.08379 8.05708 5.24839 8.05722L6.09849 8.05844L9.0297 8.05722C8.26697 7.70151 7.33864 7.13031 6.97932 6.33763C6.75957 5.85285 6.73489 5.27249 6.92302 4.77407C7.09908 4.30755 7.41788 3.92737 7.87887 3.72339C8.35686 3.51192 8.9547 3.48325 9.44445 3.67253C9.56004 3.7172 9.67709 3.77142 9.7794 3.84196C10.1098 4.0697 10.3726 4.39462 10.6072 4.71527C11.186 5.50638 11.6095 6.36285 12.0035 7.25657C12.4311 6.25066 13.017 5.09477 13.7234 4.25786C14.1079 3.80233 14.4943 3.59118 15.0879 3.53931Z" fill="white"/>
<path d="M10.8552 8.7435C11.6121 8.74053 12.3738 8.72768 13.1301 8.74603C13.1218 9.50921 13.1357 10.2736 13.1357 11.037C12.8634 11.0477 12.5896 11.0431 12.317 11.0438C11.8321 11.0461 11.3473 11.0448 10.8624 11.0399C10.8564 10.2754 10.8349 9.50778 10.8552 8.7435Z" fill="#182D4D"/>
<path d="M8.58633 4.26546C8.81253 4.24136 9.05011 4.26743 9.25925 4.35977C9.54186 4.48457 9.72521 4.74079 9.90851 4.9785C10.451 5.68207 10.826 6.41243 11.211 7.20693C11.3409 7.47515 11.4826 7.74623 11.5899 8.02425C11.3566 8.02511 11.0146 8.05193 10.7934 8.00622C10.7191 7.99087 10.6447 7.96111 10.5733 7.93556C9.83379 7.69286 8.9266 7.28918 8.30304 6.81675C7.92464 6.53006 7.56139 6.13279 7.49888 5.64382C7.4569 5.31543 7.56633 4.95466 7.76937 4.69532C7.97588 4.43156 8.26015 4.30654 8.58633 4.26546Z" fill="#182D4D"/>
<path d="M15.1005 4.25414C15.3124 4.22836 15.5459 4.26598 15.7415 4.34951C16.0524 4.48226 16.339 4.71373 16.467 5.03412C16.5829 5.3242 16.567 5.6809 16.4408 5.96505C16.0599 6.8227 14.5571 7.51413 13.7128 7.83755C13.5426 7.89785 13.3643 7.9736 13.1869 8.00857C12.9602 8.05327 12.6617 8.0332 12.4282 8.0307C12.5334 7.74776 12.6778 7.46752 12.8075 7.19438C13.2068 6.3533 13.6382 5.45944 14.2404 4.74248C14.5067 4.42549 14.6844 4.28918 15.1005 4.25414Z" fill="#182D4D"/>
<path d="M13.8524 8.74266L17.3988 8.74481C17.9778 8.7457 18.5575 8.73642 19.1364 8.74943C19.14 9.51347 19.1515 10.2793 19.1362 11.0432C18.4973 11.0617 17.853 11.0457 17.2136 11.0448L13.8548 11.046C13.839 10.7701 13.8512 10.4873 13.8512 10.2106L13.8524 8.74266Z" fill="#182D4D"/>
<path d="M6.3326 8.74365L8.62199 8.74119C9.13366 8.74086 9.64792 8.73013 10.1593 8.74395L10.1468 11.0442L8.67782 11.0448L4.85198 11.0447C4.84078 10.2829 4.85092 9.52025 4.85024 8.75834C5.03575 8.74475 5.22543 8.75021 5.41139 8.74904L6.3326 8.74365Z" fill="#182D4D"/>
<path d="M10.8535 11.7383C11.6112 11.7417 12.3709 11.7216 13.1282 11.7388C13.1495 12.0985 13.1353 12.4675 13.1354 12.8282L13.1348 14.739L13.134 20.0485C12.373 20.0539 11.6121 20.0531 10.8511 20.0462L10.8535 11.7383Z" fill="#182D4D"/>
<path d="M5.61415 11.7378L8.31525 11.734C8.9279 11.7338 9.54208 11.7254 10.1546 11.7374L10.1526 20.0334C10.1351 20.0468 10.1143 20.0473 10.0926 20.0484C9.81286 20.0625 9.52495 20.0487 9.2445 20.0485L7.52857 20.0487L6.49059 20.0523C6.2891 20.0537 6.07486 20.0696 5.87477 20.0463C5.80795 20.0385 5.75407 19.9976 5.70745 19.9513C5.64752 19.8918 5.62528 19.8164 5.61881 19.7342C5.5965 19.4505 5.61462 19.1545 5.61443 18.8692L5.61279 17.1506L5.61415 11.7378Z" fill="#182D4D"/>
<path d="M13.852 11.7362C14.4359 11.7253 15.022 11.7349 15.6061 11.7358L18.3991 11.7401L18.3967 17.2235L18.3982 18.8939C18.3989 19.1641 18.4227 19.4491 18.3975 19.7176C18.389 19.8085 18.3472 19.8664 18.2927 19.9359C18.237 19.9839 18.1801 20.0197 18.1065 20.0309C17.9276 20.0581 17.7323 20.0459 17.5516 20.0461L16.6622 20.0472C15.7256 20.0485 14.7856 20.0668 13.8494 20.0474L13.852 11.7362Z" fill="#182D4D"/>
</g>
<defs>
<clipPath id="clip0_177_1228">
<rect y="0.147827" width="24" height="24" rx="12" fill="white"/>
</clipPath>
</defs>
</svg>
