<svg width="25" height="24" viewBox="0 0 25 24" fill="none" xmlns="http://www.w3.org/2000/svg">
<path d="M13.4712 7.14286C13.8868 6.89286 14.1639 6.43929 14.1639 5.92857C14.1639 5.13929 13.5113 4.5 12.7056 4.5C11.8998 4.5 11.2472 5.13929 11.2472 5.92857C11.2472 6.44286 11.5243 6.89286 11.9399 7.14286L9.85088 11.2357C9.51911 11.8857 8.65869 12.0714 8.079 11.6179L4.83057 9.07143C5.01286 8.83214 5.12223 8.53571 5.12223 8.21429C5.12223 7.425 4.46963 6.78571 3.6639 6.78571C2.85817 6.78571 2.20557 7.425 2.20557 8.21429C2.20557 9.00357 2.85817 9.64286 3.6639 9.64286H3.68942L5.35557 18.6214C5.55609 19.7071 6.52223 20.5 7.65244 20.5H17.7587C18.8853 20.5 19.8514 19.7107 20.0556 18.6214L21.7217 9.64286H21.7472C22.553 9.64286 23.2056 9.00357 23.2056 8.21429C23.2056 7.425 22.553 6.78571 21.7472 6.78571C20.9415 6.78571 20.2889 7.425 20.2889 8.21429C20.2889 8.53571 20.3983 8.83214 20.5806 9.07143L17.3321 11.6179C16.7524 12.0714 15.892 11.8857 15.5603 11.2357L13.4712 7.14286Z" fill="#FAC60A"/>
</svg>
