<svg width="25" height="24" viewBox="0 0 25 24" fill="none" xmlns="http://www.w3.org/2000/svg">
<path d="M12.9557 5.78593L12.7056 5.93642L12.4554 5.78593C12.3232 5.70643 12.2472 5.57235 12.2472 5.42857C12.2472 5.21091 12.4326 5 12.7056 5C12.9785 5 13.1639 5.21091 13.1639 5.42857C13.1639 5.57017 13.0867 5.70718 12.9557 5.78593ZM10.7416 11.1903L12.7056 7.34249L14.6696 11.1903C15.292 12.4097 16.8817 12.7401 17.9484 11.9054L17.9491 11.9049L20.5739 9.84726L19.0727 17.9372C19.0726 17.9377 19.0725 17.9381 19.0724 17.9385C18.9587 18.5417 18.4164 19 17.7587 19H7.65244C6.99045 19 6.44935 18.5377 6.33894 17.9398L6.33878 17.939L4.83721 9.84726L7.46207 11.9049L7.46278 11.9054C8.52948 12.7401 10.1192 12.4097 10.7416 11.1903ZM21.7217 8.14286H21.5112L21.376 7.96543C21.3186 7.89001 21.2889 7.80418 21.2889 7.71429C21.2889 7.49662 21.4742 7.28571 21.7472 7.28571C22.0202 7.28571 22.2056 7.49662 22.2056 7.71429C22.2056 7.93195 22.0202 8.14286 21.7472 8.14286H21.7217ZM4.0351 7.96543L3.89993 8.14286H3.68942H3.6639C3.39092 8.14286 3.20557 7.93195 3.20557 7.71429C3.20557 7.49662 3.39092 7.28571 3.6639 7.28571C3.93688 7.28571 4.12223 7.49662 4.12223 7.71429C4.12223 7.80418 4.09255 7.89002 4.0351 7.96543Z" stroke="#FAC60A" stroke-width="2"/>
</svg>
